<svg width="32" height="32" viewBox="0 0 32 32" fill="none" xmlns="http://www.w3.org/2000/svg">
<path fill-rule="evenodd" clip-rule="evenodd" d="M4.81323 16.0001C4.81323 25.2494 7.61057 28.3334 16.0012 28.3334C24.3932 28.3334 27.1892 25.2494 27.1892 16.0001C27.1892 6.75075 24.3932 3.66675 16.0012 3.66675C7.61057 3.66675 4.81323 6.75075 4.81323 16.0001ZM11.1679 10.1531C10.7537 10.1531 10.4179 10.4889 10.4179 10.9031C10.4179 11.3173 10.7537 11.6531 11.1679 11.6531H14.8412C15.2554 11.6531 15.5912 11.3173 15.5912 10.9031C15.5912 10.4889 15.2554 10.1531 14.8412 10.1531H11.1679ZM10.4176 15.9154C10.4176 15.5012 10.7534 15.1654 11.1676 15.1654H20.7943C21.2085 15.1654 21.5443 15.5012 21.5443 15.9154C21.5443 16.3297 21.2085 16.6654 20.7943 16.6654H11.1676C10.7534 16.6654 10.4176 16.3297 10.4176 15.9154ZM10.4176 20.9285C10.4176 20.5143 10.7534 20.1785 11.1676 20.1785H20.7943C21.2085 20.1785 21.5443 20.5143 21.5443 20.9285C21.5443 21.3427 21.2085 21.6785 20.7943 21.6785H11.1676C10.7534 21.6785 10.4176 21.3427 10.4176 20.9285Z" fill="#FF753A"/>
</svg>
