<svg width="32" height="32" viewBox="0 0 32 32" fill="none" xmlns="http://www.w3.org/2000/svg">
<path fill-rule="evenodd" clip-rule="evenodd" d="M16.0001 29.3334C6.0008 29.3334 2.66675 25.9994 2.66675 16.0001C2.66675 6.00082 6.0008 2.66677 16.0001 2.66677C25.9994 2.66677 29.3334 6.00082 29.3334 16.0001C29.3334 25.9994 25.9994 29.3334 16.0001 29.3334ZM18.9733 18.4401L21.1333 11.6134C21.2799 11.1467 20.8533 10.7067 20.3866 10.8534L13.5599 12.9867C13.2799 13.0801 13.0533 13.2934 12.9733 13.5734L10.8399 20.4134C10.6933 20.8667 11.1333 21.3067 11.5866 21.1601L18.3866 19.0267C18.6666 18.9467 18.8933 18.7201 18.9733 18.4401Z" fill="#FF753A"/>
</svg>
